<?xml version="1.0" encoding="utf-8"?>
<!-- Svg Vector Icons : http://www.onlinewebfonts.com/icon -->
<!DOCTYPE svg PUBLIC "-//W3C//DTD SVG 1.1//EN" "http://www.w3.org/Graphics/SVG/1.1/DTD/svg11.dtd">
<svg version="1.1" xmlns="http://www.w3.org/2000/svg" xmlns:xlink="http://www.w3.org/1999/xlink" x="0px" y="0px" viewBox="0 0 1000 1000" enable-background="new 0 0 1000 1000" xml:space="preserve">
<metadata> Svg Vector Icons : http://www.onlinewebfonts.com/icon </metadata>
<g><g transform="translate(0.000000,511.000000) scale(0.100000,-0.100000)"><path d="M6590.6,3143.7c-109.6-29.1-378.1-120.8-592.8-203.6c-214.7-82.8-472-176.7-570.4-212.5c-360.1-125.3-861.3-373.6-1073.8-534.6c-67.1-49.2-212.5-172.3-328.8-272.9c-114.1-100.7-295.3-241.6-402.7-313.2c-275.2-185.7-308.7-183.4-879.2,58.2c-183.4,78.3-396,152.1-472,165.5c-165.5,26.9-250.5,60.4-505.6,205.8c-302,174.5-442.9,290.8-644.3,536.9c-102.9,125.3-223.7,255-272.9,288.6c-123,89.5-277.4,123-400.4,87.2c-89.5-26.8-91.7-29.1-35.8-38c55.9-6.7,87.3-49.2,35.8-49.2c-13.4,0-60.4-15.7-102.9-38l-78.3-35.8l62.6-33.6l64.9-35.8l-91.7-22.4c-111.9-29.1-154.4-62.6-183.4-145.4c-22.4-62.6-22.4-62.6,78.3-64.9c55.9,0,111.9-11.2,125.3-24.6c17.9-17.9,9-24.6-35.8-24.6c-85,0-208.1-114.1-183.4-170c8.9-22.4,15.7-55.9,13.4-73.8c-2.2-15.7,17.9-53.7,47-85c40.3-44.7,44.7-58.2,17.9-73.8c-24.6-15.7-20.1-33.6,26.9-105.1c31.3-49.2,89.5-120.8,129.7-158.8c38-40.3,58.2-71.6,44.7-71.6c-15.7,0,47-69.3,138.7-154.3c239.4-228.2,264-248.3,281.9-246.1c42.5,6.7,49.2-6.7,26.9-47c-15.7-31.3-15.7-44.7,0-44.7c11.2,0,22.4-15.7,22.4-33.6c0-17.9,15.7-33.6,33.6-33.6c17.9,0,33.6-15.7,33.6-35.8c0-29.1,15.7-33.6,76.1-24.6c62.6,9,78.3,4.5,87.2-31.3c6.7-24.6,31.3-42.5,58.2-42.5c40.3,0,44.7-8.9,33.6-58.2c-13.4-55.9-11.2-58.2,71.6-51.4c78.3,6.7,87.2,2.2,82.8-42.5c-4.5-42.5,4.5-49.2,71.6-49.2c89.5,0,98.4-24.6,26.9-73.8c-40.3-29.1-42.5-35.8-9-35.8c20.1-2.2,38-13.4,38-24.6c0-13.4,22.4-33.6,51.5-47c107.4-47,217-125.3,201.3-140.9c-22.4-22.4,436.2-4.5,496.6,17.9c35.8,13.4,38,13.4,11.2-6.7c-29.1-20.1-29.1-24.6,4.5-24.6c20.1,0,64.9,11.2,100.7,22.4c58.2,20.1,60.4,20.1,20.1-11.2c-60.4-47-13.4-42.5,109.6,11.2c120.8,51.5,132,53.7,109.6,20.1c-22.4-35.8,73.8-2.2,170,60.4c42.5,26.8,116.3,58.2,163.3,64.9l82.8,15.7v-170c0-102.9,22.4-272.9,55.9-420.6c35.8-161.1,55.9-315.4,55.9-440.7c0-290.8-73.8-416.1-409.4-684.5c-58.2-47-98.4-105.1-127.5-190.1c-44.7-120.8-44.7-125.3,0-570.4c24.6-246.1,49.2-469.8,58.2-494.4c6.7-26.8,2.2-55.9-11.2-62.6c-38-24.6-29.1-172.3,17.9-275.1c38-82.8,67.1-102.9,270.7-205.8c264-132,324.4-138.7,411.6-51.5l60.4,64.9l-55.9,190.1c-80.5,279.6-102.9,429.5-109.6,715.9c-2.2,194.6,4.5,279.6,35.8,369.1c55.9,161.1,152.1,284.1,277.4,355.7c456.4,257.3,583.9,366.9,787.4,677.8c140.9,214.8,402.7,715.9,447.4,859c20.1,58.2,40.3,82.8,71.6,82.8c22.4,0,42.5-15.7,42.5-33.6c0-58.2,44.7-35.8,78.3,40.3c26.9,60.4,44.7,67.1,35.8,11.2c-6.7-47,111.9,22.4,181.2,105.1c22.4,26.8,38,33.6,40.3,15.7c0-17.9,20.1-13.4,62.6,17.9c33.6,24.6,174.5,89.5,313.2,143.2c239.4,94,680.1,324.4,709.1,371.3c22.4,38,78.3,24.6,78.3-15.7c0-29.1,11.2-22.4,42.5,22.4c29.1,44.7,47,55.9,58.2,38c13.4-20.1,26.8-13.4,47,24.6c15.7,29.1,35.8,49.2,47,42.5c8.9-6.7,17.9,8.9,17.9,33.6c0,40.3,15.7,42.5,402.7,35.8c221.5-2.2,409.4-13.4,416.1-20.1c9-9,20.1-53.7,26.9-98.4c11.2-69.3,2.2-96.2-55.9-167.8c-58.2-73.8-64.9-96.2-53.7-183.4c17.9-125.3,55.9-199.1,129.7-255c73.8-55.9,100.7-38,192.4,127.5c38,62.6,82.8,129.7,102.9,145.4c33.6,26.9,42.5,24.6,71.6-17.9c47-67.1,134.2-98.4,190.1-69.3c73.8,40.3,183.4,286.3,183.4,409.4c-2.2,120.8,29.1,149.9,158.8,149.9c71.6,0,91.7-13.4,187.9-138.7c201.3-264,239.4-297.5,382.5-342.3c76-22.4,156.6-33.6,190.1-24.6c58.2,13.4,58.2,15.7,44.7,176.7c-6.7,87.2-22.4,196.9-33.6,239.4c-11.2,42.5-20.1,114.1-20.1,158.8c0,136.5,163.3,449.6,331.1,637.6c22.4,26.8,107.4,69.3,187.9,96.2c149.9,49.2,214.7,100.7,272.9,214.8c31.3,58.2,31.3,69.3-2.3,105.1c-53.7,60.4-572.7,219.2-715.8,219.2c-149.9,0-409.4,89.5-1020.1,349c-380.3,163.3-592.8,210.3-1011.1,223.7C6823.2,3197.4,6771.8,3192.9,6590.6,3143.7z"/></g></g>
</svg>